<svg width="140" height="139" viewBox="0 0 140 139" fill="none" xmlns="http://www.w3.org/2000/svg">
<path fill-rule="evenodd" clip-rule="evenodd" d="M129.09 0V107.038C120.542 103.626 111.988 100.214 103.428 96.8291C102.491 96.4599 101.315 96.2616 100.357 96.4667C97.9437 96.9932 97.0001 99.3727 98.0326 101.971C100.692 108.658 103.366 115.373 106.053 122.108H0V0H129.09ZM27.9458 69.9979H10.6737V20.8482H27.9458V69.9979ZM32.8895 69.9979H54.7702C68.7055 69.9979 78.6681 60.7396 78.6681 46.141C78.6681 28.0826 66.4354 20.8482 50.483 20.8482H32.8895V69.9979ZM50.1616 36.2331H51.2351C57.5395 36.2331 61.3823 39.1665 61.3823 46.0795C61.3823 52.5343 56.972 55.2694 51.2351 55.2694H50.1616V36.2331ZM97.7932 70.7842C91.8034 70.7842 84.8699 69.0884 79.5091 66.285L84.7947 52.4044L85.6768 53.1223C88.7674 55.5976 92.4872 57.6216 96.4599 57.6216C98.1625 57.6216 100.87 56.9036 100.87 54.6882C100.87 52.6903 99.0296 52.3384 97.5097 52.0478C97.3442 52.0162 97.1825 51.9853 97.0274 51.9531L93.5607 51.3035C86.8187 50.0659 81.1434 45.9564 81.1434 38.2639C81.1434 26.5919 91.4205 20.0756 101.759 20.0756C107.181 20.0756 112.166 21.4431 116.829 24.3765L112.166 36.9579C109.205 34.8724 105.862 33.2451 102.142 33.2451C100.631 33.2451 98.4223 33.8263 98.4223 35.8502C98.4223 37.4756 100.119 37.8599 101.427 38.1562L101.427 38.1563C101.588 38.1928 101.744 38.2279 101.889 38.2639L105.8 39.1734C113.117 40.8691 118.409 44.9102 118.409 53.2522C118.409 64.9858 108.07 70.7842 97.7932 70.7842ZM132.741 138.334C132.616 138.242 132.487 138.153 132.358 138.065C132.058 137.858 131.757 137.651 131.503 137.397C128.78 134.697 126.072 131.983 123.361 129.265L121.999 127.9C121.913 127.814 121.848 127.707 121.77 127.579C121.73 127.513 121.687 127.443 121.636 127.366C121.571 127.475 121.516 127.565 121.468 127.644L121.468 127.644C121.37 127.805 121.302 127.917 121.233 128.037C120.959 128.511 120.685 128.986 120.411 129.461L120.397 129.487C119.398 131.218 118.401 132.949 117.39 134.676C116.706 135.845 115.346 136.078 114.505 135.155C114.306 134.936 114.156 134.655 114.047 134.375C109.718 123.537 105.397 112.706 101.082 101.862C100.604 100.658 101.041 99.5574 102.163 99.3112C102.607 99.2155 103.147 99.3044 103.585 99.4753C107.653 101.08 111.709 102.7 115.768 104.321L115.771 104.322C117.176 104.883 118.582 105.444 119.989 106.005C122.21 106.892 124.432 107.778 126.653 108.664L126.691 108.679L126.734 108.696L126.781 108.715L126.789 108.718L126.822 108.731C129.87 109.946 132.917 111.161 135.961 112.378C137.014 112.795 137.432 113.411 137.329 114.368C137.254 115.065 136.803 115.476 136.242 115.804C135.147 116.433 134.055 117.064 132.962 117.695L132.951 117.701L132.95 117.702L132.948 117.703L132.947 117.704L132.946 117.705L132.944 117.705L132.943 117.706C131.857 118.333 130.772 118.96 129.684 119.585L129.683 119.586C129.512 119.688 129.342 119.791 129.131 119.913C129.192 119.978 129.249 120.038 129.302 120.095L129.303 120.095C129.386 120.184 129.462 120.265 129.541 120.344C131.149 121.952 132.758 123.56 134.368 125.167C135.975 126.773 137.583 128.379 139.189 129.985C140.269 131.066 140.269 131.968 139.196 133.042L138.751 133.487L138.171 134.068C137.147 135.095 136.122 136.122 135.086 137.138C134.774 137.445 134.426 137.718 134.079 137.991L134.079 137.991C133.94 138.1 133.801 138.209 133.664 138.32C133.349 138.334 133.049 138.334 132.741 138.334ZM87.0306 100.009C85.9913 99.9745 85.2665 100.33 84.8563 101.294C84.8563 101.588 84.8562 101.882 84.8494 102.176C85.287 103.161 86.0665 103.462 87.099 103.434C87.9729 103.41 88.8467 103.415 89.7206 103.42C90.3032 103.423 90.8858 103.426 91.4683 103.421C91.7965 103.414 92.1316 103.38 92.4324 103.277C93.212 103.004 93.6359 102.197 93.4855 101.383C93.3487 100.631 92.6581 100.036 91.8444 100.029C91.1911 100.021 90.5378 100.025 89.8849 100.029H89.8842H89.8835H89.8828H89.882H89.8813H89.8806H89.8801C88.9288 100.035 87.9785 100.041 87.0306 100.009ZM101.164 88.0426V85.5879C101.171 84.4938 101.841 83.7348 102.812 83.7143C103.831 83.6938 104.542 84.4118 104.563 85.5332C104.577 86.5826 104.574 87.6321 104.572 88.684C104.571 89.1057 104.569 89.5277 104.569 89.9503C104.569 90.2786 104.569 90.6068 104.522 90.9281C104.385 91.8444 103.66 92.4051 102.723 92.3572C101.903 92.3094 101.212 91.6119 101.185 90.7367C101.162 90.1397 101.163 89.5428 101.165 88.9439V88.9435C101.166 88.6438 101.167 88.3436 101.164 88.0426ZM94.7747 95.6849C94.906 95.7425 95.0372 95.7999 95.1607 95.865C95.9471 95.7214 96.4872 95.3864 96.7471 94.7231C97.0274 94.0188 96.8838 93.3692 96.3505 92.829C95.147 91.6119 93.9368 90.3948 92.7128 89.1914C91.9812 88.4734 90.9213 88.4734 90.2581 89.1503C89.6016 89.8204 89.6085 90.8529 90.3128 91.5709C91.5299 92.8085 92.747 94.0393 93.9983 95.2359C94.2084 95.4367 94.4919 95.561 94.7747 95.6849ZM88.8974 112.542C88.9286 112.484 88.961 112.405 88.9978 112.316L88.9978 112.315L88.9978 112.315L88.9979 112.315C89.09 112.091 89.21 111.8 89.4102 111.585C90.6273 110.306 91.8786 109.062 93.1436 107.831C93.8684 107.127 94.894 107.147 95.5573 107.838C96.1932 108.494 96.2001 109.52 95.5163 110.224C94.2786 111.489 93.0273 112.734 91.7692 113.964C91.2359 114.484 90.5863 114.58 89.9093 114.279C89.2734 113.999 88.9589 113.465 88.8974 112.542ZM108.645 93.9368C108.952 94.5658 109.479 94.8735 110.402 94.894C110.458 94.8642 110.535 94.8337 110.622 94.7987C110.836 94.7138 111.117 94.6024 111.325 94.4086C112.611 93.1778 113.869 91.9128 115.113 90.6341C115.77 89.9504 115.742 88.9384 115.113 88.2888C114.457 87.6187 113.452 87.5982 112.734 88.2546C112.425 88.5382 112.131 88.8363 111.838 89.1331C111.729 89.2442 111.62 89.355 111.51 89.4649C111.278 89.6965 111.045 89.9272 110.813 90.1578C110.174 90.7917 109.535 91.4251 108.918 92.0769C108.412 92.6171 108.317 93.2598 108.645 93.9368ZM22.3047 87.5982C22.3047 85.8819 21.7577 84.4528 20.6636 83.3246C19.5696 82.1964 18.1473 81.6288 16.4037 81.6288C14.6738 81.6288 13.2652 82.1964 12.1917 83.3246C11.1113 84.4528 10.5711 85.8819 10.5711 87.5982V90.1281C10.5711 91.8512 11.1113 93.2803 12.1917 94.4085C13.272 95.5368 14.6806 96.0975 16.4242 96.0975C18.1679 96.0975 19.5833 95.5368 20.6705 94.4085C21.7577 93.2872 22.3047 91.8581 22.3047 90.1281V87.5982ZM19.4944 90.1281C19.4944 91.2427 19.2209 92.1521 18.6807 92.8495C18.1405 93.5538 17.3884 93.9026 16.4242 93.9026C15.467 93.9026 14.7148 93.5538 14.1815 92.8495C13.6481 92.1453 13.3814 91.2427 13.3814 90.1281V87.5777C13.3814 86.4836 13.6481 85.5879 14.1815 84.8836C14.7148 84.1793 15.4533 83.8306 16.4106 83.8306C17.3747 83.8306 18.1337 84.1793 18.6807 84.8836C19.2277 85.5879 19.5012 86.4836 19.5012 87.5777V90.1281H19.4944ZM36.4998 81.834H33.6827V91.2974L33.628 91.3042L27.9595 81.8271H25.1423V95.8855H27.9595V86.4084L28.0142 86.4016L33.6827 95.8855H36.4998V81.834ZM42.4965 81.834H39.6794V95.8923H48.794V93.7316H42.4965V81.834ZM54.2779 81.834H51.4608V95.8923H54.2779V81.834ZM69.0201 81.834H66.2098V91.2974L66.1482 91.3042L60.4797 81.8271H57.6626V95.8855H60.4797V86.4084L60.5344 86.4016L66.2029 95.8855H69.0201V81.834ZM80.2408 87.5435H75.0236V84.0084H81.2049V81.834H72.2065V95.8923H81.2254V93.7316H75.0236V89.711H80.2408V87.5435ZM11.0019 74.9659C10.2563 74.9659 9.65191 75.5703 9.65191 76.3159C9.65191 77.0615 10.2563 77.6659 11.0019 77.6659H80.781C81.5266 77.6659 82.131 77.0615 82.131 76.3159C82.131 75.5703 81.5266 74.9659 80.781 74.9659H11.0019Z" fill="white"/>
</svg>
