<svg width="600" height="593" viewBox="0 0 600 593" fill="none" xmlns="http://www.w3.org/2000/svg">
<path fill-rule="evenodd" clip-rule="evenodd" d="M552.556 0V458.166C515.971 443.561 479.356 428.956 442.712 414.468C438.702 412.888 433.668 412.039 429.571 412.917C419.239 415.171 415.2 425.356 419.62 436.478C431.005 465.102 442.449 493.844 453.951 522.673H0V0H552.556ZM119.619 299.62H45.6878V89.239H119.619V299.62ZM140.781 299.62H234.439C294.088 299.62 336.732 259.99 336.732 197.502C336.732 120.205 284.371 89.239 216.088 89.239H140.781V299.62ZM214.712 155.093H219.307C246.293 155.093 262.741 167.649 262.741 197.239C262.741 224.868 243.863 236.576 219.307 236.576H214.712V155.093ZM418.595 302.985C392.956 302.985 363.278 295.727 340.332 283.727L362.956 224.312L366.732 227.385C379.961 237.98 395.883 246.644 412.888 246.644C420.176 246.644 431.766 243.571 431.766 234.088C431.766 225.536 423.887 224.03 417.381 222.786C416.673 222.651 415.981 222.518 415.317 222.38L400.478 219.6C371.619 214.302 347.327 196.712 347.327 163.785C347.327 113.824 391.317 85.9317 435.571 85.9317C458.781 85.9317 480.117 91.7853 500.078 104.341L480.117 158.195C467.444 149.268 453.132 142.302 437.21 142.302C430.741 142.302 421.288 144.79 421.288 153.454C421.288 160.411 428.549 162.056 434.149 163.324C434.839 163.481 435.504 163.631 436.127 163.785L452.868 167.678C484.185 174.937 506.839 192.234 506.839 227.941C506.839 278.166 462.585 302.985 418.595 302.985ZM568.185 592.127C567.65 591.732 567.098 591.352 566.547 590.973L566.546 590.973C565.26 590.088 563.974 589.203 562.888 588.117C551.232 576.561 539.64 564.941 528.04 553.312C526.095 551.363 524.15 549.413 522.205 547.463C521.837 547.095 521.558 546.637 521.225 546.089L521.224 546.087L521.223 546.085L521.218 546.077C521.135 545.94 521.048 545.798 520.956 545.65C520.862 545.499 520.762 545.343 520.654 545.18C520.373 545.645 520.137 546.033 519.931 546.371C519.515 547.056 519.221 547.539 518.927 548.049C518.575 548.658 518.224 549.267 517.872 549.876L516.842 551.663L515.34 554.268C511.069 561.677 506.8 569.081 502.478 576.468C499.551 581.473 493.727 582.468 490.127 578.517C489.278 577.58 488.634 576.38 488.166 575.18C469.639 528.79 451.141 482.429 432.673 436.01C430.624 430.858 432.498 426.146 437.298 425.093C439.2 424.683 441.512 425.063 443.385 425.795C460.794 432.663 478.154 439.595 495.525 446.532L495.543 446.539C501.56 448.942 507.578 451.345 513.6 453.746C523.068 457.526 532.537 461.301 542.003 465.076L542.123 465.123C555.412 470.421 568.696 475.718 581.971 481.024C586.478 482.81 588.263 485.444 587.824 489.541C587.502 492.527 585.571 494.283 583.171 495.688C578.486 498.381 573.809 501.082 569.132 503.783C564.458 506.482 559.784 509.181 555.102 511.873C554.371 512.312 553.639 512.751 552.732 513.278C552.995 513.553 553.237 513.81 553.466 514.055C553.822 514.434 554.15 514.784 554.488 515.122C561.359 521.993 568.237 528.864 575.115 535.735C582.008 542.62 588.9 549.505 595.785 556.39C600.41 561.015 600.41 564.878 595.815 569.473C594.354 570.934 592.894 572.397 591.435 573.86C587.048 578.258 582.661 582.656 578.224 587.005C576.886 588.322 575.399 589.49 573.912 590.657C573.317 591.124 572.722 591.591 572.137 592.068C570.79 592.127 569.502 592.127 568.185 592.127ZM372.527 428.078C368.078 427.932 364.976 429.454 363.22 433.58C363.22 434.839 363.219 436.098 363.19 437.356C365.063 441.571 368.4 442.859 372.82 442.741C376.56 442.636 380.3 442.657 384.041 442.678C386.535 442.692 389.028 442.706 391.522 442.683C392.927 442.654 394.361 442.507 395.649 442.068C398.985 440.898 400.8 437.444 400.156 433.961C399.571 430.741 396.615 428.195 393.132 428.166C390.329 428.13 387.526 428.148 384.725 428.165C380.653 428.191 376.585 428.217 372.527 428.078ZM433.024 376.858V366.351C433.054 361.668 435.922 358.419 440.078 358.332C444.439 358.244 447.483 361.317 447.571 366.117C447.633 370.609 447.622 375.102 447.61 379.604C447.605 381.409 447.6 383.216 447.6 385.024C447.6 386.429 447.6 387.834 447.395 389.21C446.81 393.132 443.707 395.532 439.698 395.327C436.185 395.122 433.229 392.136 433.112 388.39C433.015 385.835 433.021 383.28 433.028 380.716V380.715V380.707C433.031 379.427 433.034 378.144 433.024 376.858ZM405.675 409.571C406.237 409.817 406.798 410.063 407.327 410.341C410.693 409.727 413.005 408.293 414.117 405.454C415.317 402.439 414.702 399.658 412.42 397.346C407.268 392.137 402.088 386.927 396.849 381.776C393.717 378.702 389.181 378.702 386.341 381.6C383.532 384.468 383.561 388.888 386.576 391.961C391.785 397.258 396.995 402.527 402.351 407.649C403.251 408.508 404.464 409.04 405.675 409.571ZM380.947 480.757L380.947 480.756C381.341 479.798 381.855 478.549 382.712 477.629C387.922 472.156 393.278 466.829 398.693 461.561C401.795 458.546 406.185 458.634 409.024 461.59C411.746 464.4 411.776 468.79 408.849 471.805C403.551 477.219 398.195 482.546 392.81 487.815C390.527 490.039 387.746 490.449 384.849 489.161C382.127 487.961 380.781 485.678 380.517 481.727C380.651 481.476 380.789 481.14 380.947 480.757ZM465.044 402.088C466.361 404.78 468.615 406.098 472.566 406.185C472.805 406.057 473.133 405.927 473.509 405.777C474.425 405.414 475.625 404.937 476.517 404.107C482.02 398.839 487.405 393.424 492.732 387.951C495.542 385.024 495.424 380.693 492.732 377.912C489.922 375.044 485.62 374.956 482.546 377.766C481.226 378.979 479.968 380.255 478.716 381.525L478.716 381.525L478.714 381.526C478.245 382.002 477.777 382.476 477.307 382.946C476.316 383.938 475.32 384.925 474.325 385.912C471.589 388.626 468.854 391.337 466.215 394.127C464.049 396.439 463.639 399.19 465.044 402.088ZM95.4732 374.956C95.4732 367.61 93.1317 361.493 88.4488 356.663C83.7659 351.834 77.6781 349.405 70.2146 349.405C62.8098 349.405 56.7805 351.834 52.1854 356.663C47.561 361.493 45.2488 367.61 45.2488 374.956V385.785C45.2488 393.161 47.561 399.278 52.1854 404.107C56.8098 408.936 62.839 411.337 70.3025 411.337C77.7659 411.337 83.8244 408.936 88.478 404.107C93.1317 399.307 95.4732 393.19 95.4732 385.785V374.956ZM83.4439 385.785C83.4439 390.556 82.2732 394.449 79.961 397.434C77.6488 400.449 74.4293 401.941 70.3025 401.941C66.2049 401.941 62.9854 400.449 60.7025 397.434C58.4195 394.419 57.2781 390.556 57.2781 385.785V374.868C57.2781 370.185 58.4195 366.351 60.7025 363.337C62.9854 360.322 66.1463 358.829 70.2439 358.829C74.3707 358.829 77.6195 360.322 79.961 363.337C82.3025 366.351 83.4732 370.185 83.4732 374.868V385.785H83.4439ZM156.234 350.283H144.176V390.79L143.941 390.819L119.678 350.254H107.62V410.429H119.678V369.863L119.912 369.834L144.176 410.429H156.234V350.283ZM181.902 350.283H169.844V410.458H208.858V401.21H181.902V350.283ZM232.332 350.283H220.273V410.458H232.332V350.283ZM295.434 350.283H283.405V390.79L283.141 390.819L258.878 350.254H246.819V410.429H258.878V369.863L259.112 369.834L283.376 410.429H295.434V350.283ZM343.463 374.722H321.132V359.59H347.59V350.283H309.073V410.458H347.678V401.21H321.132V384H343.463V374.722ZM47.0927 325.313C46.3471 325.313 45.7427 325.918 45.7427 326.663C45.7427 327.409 46.3471 328.013 47.0927 328.013H345.776C346.521 328.013 347.126 327.409 347.126 326.663C347.126 325.918 346.521 325.313 345.776 325.313H47.0927Z" fill="#F39200"/>
</svg>
